<svg width="1092" height="578" viewBox="0 0 1092 578" fill="none" xmlns="http://www.w3.org/2000/svg">
<circle cx="855" cy="17" r="12" fill="#E7B10A" fill-opacity="0.1"/>
<circle cx="929" cy="34" r="12" fill="#E7B10A" fill-opacity="0.1"/>
<circle cx="824.5" cy="13.5" r="10.5" fill="#E7B10A" fill-opacity="0.1"/>
<ellipse cx="1030.5" cy="125" rx="19.5" ry="18" fill="#E7B10A" fill-opacity="0.1"/>
<ellipse cx="1072.5" cy="35" rx="19.5" ry="18" fill="#E7B10A" fill-opacity="0.1"/>
<ellipse cx="1018.5" cy="221" rx="19.5" ry="18" fill="#E7B10A" fill-opacity="0.1"/>
<ellipse cx="1038.5" cy="560" rx="19.5" ry="18" fill="#E7B10A" fill-opacity="0.1"/>
<circle cx="1046" cy="392" r="12" fill="#E7B10A" fill-opacity="0.1"/>
<ellipse cx="846.5" cy="266" rx="19.5" ry="18" fill="#E7B10A" fill-opacity="0.1"/>
<circle cx="553" cy="263" r="10" fill="#E7B10A" fill-opacity="0.08"/>
<ellipse cx="853" cy="495" rx="10" ry="13" fill="#E7B10A" fill-opacity="0.1"/>
<ellipse cx="704.5" cy="344" rx="25.5" ry="25" fill="#E7B10A" fill-opacity="0.1"/>
<ellipse cx="575" cy="397.5" rx="12" ry="13.5" fill="#E7B10A" fill-opacity="0.1"/>
<ellipse cx="12" cy="13.5" rx="12" ry="13.5" fill="#E7B10A" fill-opacity="0.1"/>
<ellipse cx="657" cy="468.5" rx="12" ry="13.5" fill="#E7B10A" fill-opacity="0.1"/>
<ellipse cx="273.5" cy="488.5" rx="9.5" ry="11.5" fill="#E7B10A" fill-opacity="0.1"/>
<ellipse cx="65.5" cy="500" rx="19.5" ry="18" fill="#E7B10A" fill-opacity="0.1"/>
</svg>
